<svg xmlns="http://www.w3.org/2000/svg" data-name="CTRL Button" viewBox="0 0 600 600"><g fill="#A5A6BC"><path d="M313.54 108.69a659.09 659.09 0 0016.29-50.78c.52-1.86-2.38-2.66-2.89-.8a659.09 659.09 0 01-16.29 50.78c-.66 1.82 2.23 2.6 2.89.8zM271.13 61.13c1.14-.34 1.8-.17 1.98.51-1.09.05-1.53.36-1.32.92-.03.27.14.87.16 1.15.07.95.13 1.9.21 2.85.17 2.06.37 4.11.62 6.16.48 4.07 1.09 8.13 1.84 12.17 1.52 8.12 3.61 16.12 6.23 23.94.61 1.82 3.51 1.04 2.89-.8-2.75-8.2-4.91-16.6-6.44-25.11-.78-4.32-1.39-8.67-1.83-13.04-.22-2.13-.37-4.27-.53-6.41-.11-1.5-.46-3.26-2.07-3.82-1.51-.52-2.79.66-2.74 2.17.06 1.72 1.81 2.59 3.14 1.44 1.46-1.27-.67-3.38-2.12-2.12z"></path></g><g fill="#A5A6BC"><path d="M286.31 502.95a865.584 865.584 0 00-10.49 37.11c-.48 1.87 2.41 2.67 2.89.8a880.37 880.37 0 0110.49-37.11c.57-1.85-2.33-2.64-2.89-.8zM321.24 507.74c-.12 10.74-.23 21.48-.35 32.22-.02 1.93 2.98 1.93 3 0 .12-10.74.23-21.48.35-32.22.02-1.93-2.98-1.93-3 0z"></path></g><g fill="#A5A6BC"><path d="M97.42 305.28c-10.09 5.04-20.18 10.09-30.27 15.13-1.73.86-.21 3.45 1.51 2.59 10.09-5.04 20.18-10.09 30.27-15.13 1.73-.86.21-3.45-1.51-2.59zM100.99 276.84l-37.39 7.83c-1.89.4-1.09 3.29.8 2.89l37.39-7.83c1.89-.4 1.09-3.29-.8-2.89z"></path></g><g fill="#A5A6BC"><path d="M533.65 285.19a80.032 80.032 0 0131.22-3.76c1.93.15 1.92-2.85 0-3-10.8-.84-21.73.49-32.02 3.87-1.83.6-1.04 3.5.8 2.89zM527.91 314.71c13.47 2.61 26.99 4.97 40.55 7.07 1.89.29 2.7-2.6.8-2.89-13.56-2.1-27.08-4.46-40.55-7.07-1.89-.37-2.69 2.52-.8 2.89z"></path></g><path fill="#067790" d="M141.5 457.55c-.13.35-.25.69-.35 1.06-1.68 6.1 2.07 14.39 8.84 15.57 89.77 15.64 180.79 8.44 270.77-1.35 11.33-1.23 22.7-2.31 33.99-3.87 10.36-1.43 20.21-4.61 28.01-11.9 14.06-13.13 15.34-34.04 15.68-52.02.88-46.05.63-92.12-.75-138.16-.69-23.02-1.66-46.03-2.93-69.02-.59-10.65-1.32-21.6-6.71-31.09-5.01-8.83-13.56-15.28-22.43-19.89-19.29-10.02-40.67-13.45-62.05-15.74-22.51-2.42-45.12-4.07-67.73-5.17-9.23-.45-18.47-.79-27.71-1.03-9.63-.77-19.29-1.31-28.94-1.61-1.81-.06-3.61.39-5.27 1.18-1.93 0-3.85 0-5.78.02-22.32.14-45.08.04-67.29 2.42-10.37 1.11-20.84 3.08-29.86 8.64-8.43 5.2-14.98 12.99-19.09 21.97-3.94 8.6-6.23 17.6-8.05 26.84-2.2 11.18-4.33 22.38-6.42 33.58-8.38 44.89-15.72 90.25-17.18 135.97-1.06 33.06-2.56 77.53 21.26 103.58zm325.67-20.84c-.58.72-1.22 1.39-1.88 2.03-.02.02-.05.05-.09.08.4-1.41.74-2.84 1.06-4.27.59 0 1.19-.03 1.8-.12.13-.02.27-.05.4-.08-.33.58-.66 1.15-.97 1.74-.14.26-.24.46-.33.62zM435.8 162.24c7.36 2.06 14.12 4.64 20.74 8.56-6.2-1.85-12.41-3.69-18.61-5.54-1.01-.3-2.03-.44-3.05-.46.39-.79.7-1.64.92-2.56zm-23.04 116.6c.02.52.05 1.03.09 1.55-1.2-1.13-2.42-2.24-3.62-3.36 1.18.61 2.36 1.21 3.54 1.82zm-44.64 33.95c-1.32-1-2.63-2.01-3.93-3.02-2.14-2.48-4.28-4.95-6.44-7.41 3.48 3.45 6.94 6.92 10.37 10.42zm-69.51 86.8c.28.28.56.57.84.85-.36-.02-.72-.04-1.08-.05.09-.26.17-.53.24-.79zm-51.69-49.54c4.67 6.98 9.46 13.88 14.4 20.67.89 1.76 1.76 3.52 2.6 5.3a210.99 210.99 0 01-4.22-3.42c-3.56-7.61-7.64-14.93-12.43-21.88-.15-.22-.31-.43-.46-.65.03 0 .07-.01.1-.02zM232.23 150.6c-.02.34-.03.68-.03 1.02-2.79-.03-5.58.05-8.32.3-.31-.01-.62-.03-.93-.05a12.1 12.1 0 00-2.93.23c-.98-.28-1.96-.59-2.94-.88 5.05-.24 10.1-.45 15.15-.63zm-86.87 212.7c.4 1.17.97 2.26 1.69 3.26.4 1.61 1.11 3.11 2.07 4.44-.26.16-.52.32-.77.5-1.11.75-2.11 1.58-3.02 2.46-.03-3.55-.01-7.1.04-10.65z"></path><path fill="#252634" d="M139.82 453.1c7.55 4.7 16.61 6.4 25.2 8.08 10.74 2.1 21.56 3.79 32.42 5.16 10.84 1.37 21.73 2.33 32.65 2.95 3.02.17 4.99-1.34 5.91-3.41 32.62 1.33 65.24 2.65 97.86 3.98 22.22.9 44.45 1.81 66.67 2.71 18.33.75 39.89 3.64 54.56-9.98 6.57-6.1 10.45-14.43 13.61-22.65 3.72-9.65 6.24-19.73 7.93-29.93 3.33-20.15 3.65-40.58 3.51-60.95-.31-44.42-.68-88.92-4.2-133.22-1.44-18.14-1.12-39.93-16.83-52.24-6.92-5.42-15.3-8.45-23.74-10.59-10-2.53-20.21-4.38-30.4-5.99-42.87-6.75-86.3-7.42-129.61-7.96-21.82-.27-43.66-.54-65.46.45-17.6.8-36.77 2.14-50.89 13.94-14.31 11.95-17.02 31.21-19.2 48.59-2.76 21.94-5.13 43.93-7.11 65.96a1904.99 1904.99 0 00-7.35 134.26c-.35 18.06-3.25 39.81 14.49 50.85zm4.06-156.51c1.57-20.86 3.48-41.7 5.73-62.49 1.13-10.4 2.34-20.79 3.64-31.17 1.04-8.32 2.16-16.72 4.97-24.66 5.6-15.86 19.75-22.09 35.48-24.03 19.33-2.38 39.22-1.95 58.65-1.84 40.76.21 81.75.32 122.34 4.34 19.56 1.94 39.35 4.67 58.38 9.69 7.12 1.88 14.58 4.39 19.88 9.74 5.77 5.83 7.05 14.4 7.87 22.21 4.32 41.31 5.04 82.96 5.51 124.46.43 38.1 3.38 78.95-11.29 115.02-2.79 6.85-6.59 13.99-13.19 17.82-7.27 4.22-16.23 4.19-24.37 3.99-20.67-.52-41.33-1.66-61.99-2.5l-126.14-5.13c-10.21-.42-20.42-.83-30.63-1.25-1.92-.08-3.42.52-4.49 1.5-8.56-1.15-17.09-2.54-25.58-4.2-7.66-1.5-16.53-2.68-23.02-7.4-6.33-4.6-6.94-12.22-6.97-19.46-.19-41.53 2.14-83.25 5.25-124.65z"></path><path fill="#252634" d="M187.78 168.74c-7.12-.85-14.5.92-20.51 4.83s-10.36 9.86-12.46 16.67c-1.2 3.87-1.63 7.99-1.23 12.02.19 1.9 3.19 1.92 3 0-.81-8.31 2.08-16.81 8.03-22.72 6.05-6.01 14.75-8.81 23.17-7.8 1.91.23 1.9-2.77 0-3zM423.64 402.99c-.02 4.76-.46 9.51-1.37 14.18-.45 2.32-1.01 4.63-1.67 6.9-.56 1.91-1.13 3.84-2.19 5.54-2.49 4-7.2 3.08-11.17 2.43-4.82-.79-9.57-1.97-14.2-3.5-1.84-.6-2.63 2.29-.8 2.89a95.01 95.01 0 0012.31 3.17c3.58.66 7.76 1.68 11.35.61 3.33-1 5.25-3.82 6.46-6.9 1.42-3.59 2.29-7.48 2.98-11.27a81.78 81.78 0 001.3-14.05c0-1.93-2.99-1.93-3 0zM246.63 329.77c-11.85 3.95-26.43 9.26-38.71 3.99-9.47-4.06-14.91-14.54-15.05-24.53-.15-10.98 6.31-21.1 14.9-27.56 7.37-5.54 23.67-13.19 30.48-2.93 5.31 8.01 18.31.5 12.95-7.57-16.98-25.58-53.46-6.71-66.14 13.42-13.24 21.03-7.24 52.48 16.83 62.78 15.86 6.79 33.14 2.04 48.72-3.15 9.11-3.03 5.21-17.53-3.99-14.46zM307.08 274.93c-6.48.24-12.96.34-19.43.32.4-13.23.8-26.46 1.19-39.69.29-9.66-14.71-9.65-15 0-.39 13.13-.8 26.25-1.19 39.38-1.8-.06-3.61-.11-5.41-.19-9.65-.44-9.63 14.56 0 15 1.66.08 3.32.12 4.97.18-.05 1.63-.1 3.27-.14 4.9-.53 19.23-.45 38.39 2.82 57.41 1.64 9.49 16.09 5.47 14.46-3.99-3.15-18.26-2.76-36.89-2.23-55.34.03-.89.05-1.77.08-2.66 6.63.03 13.25-.08 19.88-.32 9.62-.36 9.67-15.36 0-15zM366.53 273.89c-14.26-3.36-29.03.59-39.67 9.96-4.51-1.45-10.1.78-9.57 6.76.15 1.71.28 3.43.39 5.14-.32 1.31-.22 2.56.2 3.69.57 12.04.15 24.14-1.54 36.08-.57 4.04.99 8.01 5.24 9.23 3.51 1 8.66-1.23 9.23-5.24 1.89-13.39 2.64-26.78 2.05-40.24 6.73-9.06 18.62-13.53 29.7-10.92 9.39 2.21 13.39-12.25 3.99-14.46zM390.22 248.44c-1.14 33.23-2.93 66.43-5.36 99.59-.71 9.63 14.3 9.59 15 0 2.44-33.16 4.22-66.36 5.36-99.59.33-9.65-14.67-9.64-15 0z"></path></svg>