<svg xmlns="http://www.w3.org/2000/svg" viewBox="0 0 300 300"><path fill="#067790" d="M280.5 251.94c-2.72-1.28-5.33-2.01-8.32-2.37-3.23-.39-7.11-.07-9.98-1.83-3.89-2.38-4.32-7.96-4.79-12.05-1.22-10.73-2.45-21.44-12.55-27.62-26.21-16.02-50.54 15.39-69.46 28.73-11.7 8.25-25.1 12.4-39.46 11.19-12.62-1.06-27.9-6.75-34.63-18.21-8.24-14.05 3.68-28.59 14.13-37.21 11.26-9.29 23.37-17.54 34.66-26.83 11.27-9.28 22.12-19.12 31.98-29.89 8.79-9.59 19.73-20.93 22.59-34.06 2.67-12.24-2.18-25.03-11.01-33.64-9.31-9.09-22.59-12.93-35.38-12.7-25.5.46-47.47 15.38-65.3 32.35-9.48 9.02-18.18 18.81-27.06 28.42-7.75 8.39-17.98 21.82-31.03 19.18-25.76-5.21 13.46-61.01 21.19-70.56 7.5-9.26 17.11-20.26 10.86-32.82-6.62-13.28-21.2-7.53-31.44-2.25-6.22 3.21-11.9 7.29-17.17 11.88-4.86 4.24 2.24 11.29 7.07 7.07 5.27-4.6 11.1-8.47 17.44-11.46 5.32-2.51 14.22-7.14 15.95 1.52 1.25 6.26-4 11.98-7.65 16.41-4.64 5.62-9.07 11.4-13.09 17.48-7.5 11.36-13.76 23.63-18.48 36.4-4.1 11.08-5.85 25.49 5.52 32.96 23.06 15.16 44.99-15.65 58.33-30.05 16.47-17.79 34.62-36.76 58.56-43.86 12.73-3.78 27.37-4.19 39.1 2.84 11.17 6.69 17.74 20.64 12.41 33.11-5.26 12.28-16.43 22.99-25.7 32.29-10.32 10.36-21.47 19.87-32.95 28.91-18.72 14.75-52.94 33.02-45.23 62.23 6.69 25.34 40.74 33.44 63.19 29.68 15.64-2.62 28.21-11.46 40.02-21.53 10.6-9.03 23.9-23.35 39.28-21.58 6.39.74 11.78 4.35 13.62 10.65 1.63 5.55 1.52 11.45 2.54 17.11.95 5.26 3.11 10.33 7.52 13.58 6.06 4.47 13.32 2.16 19.69 5.15 5.79 2.72 10.88-5.9 5.05-8.63z"></path></svg>