<svg xmlns="http://www.w3.org/2000/svg" viewBox="0 0 600 600"><path fill="#A5A6BC" d="M164.07 105.67a655.386 655.386 0 00-40.73-34.42c-1.51-1.17-3.64.94-2.12 2.12a661.281 661.281 0 0140.73 34.42c1.42 1.3 3.55-.81 2.12-2.12zM121.43 122.9c-1.41 1.98-1.88 1.95-1.43-.11a3.18 3.18 0 01-.53-.14c-.37-.13-.71-.33-1.06-.5-.9-.43-1.81-.86-2.72-1.28-1.87-.86-3.75-1.68-5.64-2.48-3.69-1.55-7.43-2.99-11.22-4.29-7.72-2.65-15.62-4.76-23.63-6.33-1.89-.37-2.69 2.52-.8 2.89 8.39 1.65 16.65 3.88 24.72 6.71 4.02 1.41 7.99 2.96 11.89 4.67 1.97.86 3.93 1.76 5.88 2.7 1.38.67 3.05 1.56 4.56.7s1.5-2.85 0-3.71-3.24.19-2.9 1.97c.36 1.89 3.25 1.09 2.89-.8zM450.97 497.26c2.56 12.95 5.8 25.76 9.71 38.37.57 1.84 3.47 1.05 2.89-.8a372.757 372.757 0 01-9.71-38.37c-.37-1.89-3.27-1.09-2.89.8zM482.55 474.87c7.51 7.68 15.02 15.35 22.54 23.03 1.35 1.38 3.47-.74 2.12-2.12-7.51-7.68-15.02-15.35-22.54-23.03-1.35-1.38-3.47.74-2.12 2.12zM154.39 488.94c-3.57 10.7-7.14 21.4-10.7 32.1-.61 1.84 2.28 2.62 2.89.8 3.57-10.7 7.14-21.4 10.7-32.1.61-1.84-2.28-2.62-2.89-.8zM113.48 476.92c-6.97 10.66-13.94 21.32-20.9 31.98-1.06 1.62 1.54 3.13 2.59 1.51 6.97-10.66 13.94-21.32 20.9-31.98 1.06-1.62-1.54-3.13-2.59-1.51zM463.42 90.58a80.14 80.14 0 0119.43-24.76c1.47-1.26-.66-3.37-2.12-2.12a82.244 82.244 0 00-19.9 25.36c-.87 1.72 1.72 3.24 2.59 1.51zM492.28 107.72c11.37-7.68 22.6-15.57 33.67-23.67 1.54-1.13.05-3.73-1.51-2.59-11.07 8.1-22.3 15.99-33.67 23.67-1.59 1.07-.09 3.67 1.51 2.59z"></path><path fill="#067790" d="M477.2 149.09c.13-.35.25-.69.35-1.06 1.68-6.1-2.07-14.39-8.84-15.57-89.77-15.64-180.79-8.44-270.77 1.35-11.33 1.23-22.7 2.31-33.99 3.87-10.36 1.43-20.21 4.61-28.01 11.9-14.06 13.13-15.34 34.04-15.68 52.02-.88 46.05-.63 92.12.75 138.16.69 23.02 1.66 46.03 2.93 69.02.59 10.65 1.32 21.6 6.71 31.09 5.01 8.83 13.56 15.28 22.43 19.89 19.29 10.02 40.67 13.45 62.05 15.74 22.51 2.42 45.12 4.07 67.73 5.17 9.23.45 18.47.79 27.71 1.03 9.63.77 19.29 1.31 28.94 1.61 1.81.06 3.61-.39 5.27-1.18 1.93 0 3.85 0 5.78-.02 22.32-.14 45.08-.04 67.29-2.42 10.37-1.11 20.84-3.08 29.86-8.64 8.43-5.2 14.98-12.99 19.09-21.97 3.94-8.6 6.23-17.6 8.05-26.84 2.2-11.18 4.33-22.38 6.42-33.58 8.38-44.89 15.72-90.25 17.18-135.97 1.06-33.06 2.56-77.53-21.26-103.58zm-325.67 20.84c.58-.72 1.22-1.39 1.88-2.03.02-.02.05-.05.09-.08-.4 1.41-.74 2.84-1.06 4.27-.59 0-1.19.03-1.8.12-.13.02-.27.05-.4.08.33-.58.66-1.15.97-1.74.14-.26.24-.46.33-.62zM182.9 444.4c-7.36-2.06-14.12-4.64-20.74-8.56 6.2 1.85 12.41 3.69 18.61 5.54 1.01.3 2.03.44 3.05.46-.39.79-.7 1.64-.92 2.56zm23.04-116.6c-.02-.52-.05-1.03-.09-1.55 1.2 1.13 2.42 2.24 3.62 3.36-1.18-.61-2.36-1.21-3.54-1.82zm44.64-33.95c1.32 1 2.63 2.01 3.93 3.02 2.14 2.48 4.28 4.95 6.44 7.41-3.48-3.45-6.94-6.92-10.37-10.42zm69.51-86.8c-.28-.28-.56-.57-.84-.85.36.02.72.04 1.08.05-.09.26-.17.53-.24.79zm51.69 49.54c-4.67-6.98-9.46-13.88-14.4-20.67-.89-1.76-1.76-3.52-2.6-5.3 1.41 1.11 2.81 2.25 4.22 3.42 3.56 7.61 7.64 14.93 12.43 21.88.15.22.31.43.46.65-.03 0-.07.01-.1.02zm14.69 199.45c.02-.34.03-.68.03-1.02 2.79.03 5.58-.05 8.32-.3.31.01.62.03.93.05a12.1 12.1 0 002.93-.23c.98.28 1.96.59 2.94.88-5.05.24-10.1.45-15.15.63zm86.87-212.7c-.4-1.17-.97-2.26-1.69-3.26-.4-1.61-1.11-3.11-2.07-4.44.26-.16.52-.32.77-.5 1.11-.75 2.11-1.58 3.02-2.46.03 3.55.01 7.1-.04 10.65z"></path><path fill="#252634" d="M465.29 159.05c-7.55-4.7-16.61-6.4-25.2-8.08-10.74-2.1-21.56-3.79-32.42-5.16-10.84-1.37-21.73-2.33-32.65-2.95-3.02-.17-4.99 1.34-5.91 3.41-32.62-1.33-65.24-2.65-97.86-3.98-22.22-.9-44.45-1.81-66.67-2.71-18.33-.75-39.89-3.64-54.56 9.98-6.57 6.1-10.45 14.43-13.61 22.65-3.72 9.65-6.24 19.73-7.93 29.93-3.33 20.15-3.65 40.58-3.51 60.95.31 44.42.68 88.92 4.2 133.22 1.44 18.14 1.12 39.93 16.83 52.24 6.92 5.42 15.3 8.45 23.74 10.59 10 2.53 20.21 4.38 30.4 5.99 42.87 6.75 86.3 7.42 129.61 7.96 21.82.27 43.66.54 65.46-.45 17.6-.8 36.77-2.14 50.89-13.94 14.31-11.95 17.02-31.21 19.2-48.59 2.76-21.94 5.13-43.93 7.11-65.96 4.03-44.65 6.48-89.44 7.35-134.26.35-18.06 3.25-39.81-14.49-50.85zm-4.06 156.51c-1.57 20.86-3.48 41.7-5.73 62.49-1.13 10.4-2.34 20.79-3.64 31.17-1.04 8.32-2.16 16.72-4.97 24.66-5.6 15.86-19.75 22.09-35.48 24.03-19.33 2.38-39.22 1.95-58.65 1.84-40.76-.21-81.75-.32-122.34-4.34-19.56-1.94-39.35-4.67-58.38-9.69-7.12-1.88-14.58-4.39-19.88-9.74-5.77-5.83-7.05-14.4-7.87-22.21-4.32-41.31-5.04-82.96-5.51-124.46-.43-38.1-3.38-78.95 11.29-115.02 2.79-6.85 6.59-13.99 13.19-17.82 7.27-4.22 16.23-4.19 24.37-3.99 20.67.52 41.33 1.66 61.99 2.5l126.14 5.13c10.21.42 20.42.83 30.63 1.25 1.92.08 3.42-.52 4.49-1.5 8.56 1.15 17.09 2.54 25.58 4.2 7.66 1.5 16.53 2.68 23.02 7.4 6.33 4.6 6.94 12.22 6.97 19.46.19 41.53-2.14 83.25-5.25 124.65z"></path><path fill="#252634" d="M367.78 355.16c-9.92-2.71-20.73-2.17-30.92-2.45h-.18c-.09-5.24.02-10.48.21-15.7.63-17.15 1.83-34.3 3.28-51.4 1.02-12.08 1.95-24.29 3.41-36.39 1.32.04 2.63.08 3.95.13 9.33.3 19.38 1.17 27.83-3.64 6.55-3.73 11.18-10.82 12.41-18.2 2.76-16.58-11.26-31.44-28.1-29.66-17.01 1.79-24.57 18.47-27.14 33.42-.23 1.34-.43 2.68-.64 4.03-1.63-.05-3.25-.11-4.88-.16l-52.63-1.68c-1.11-.04-2.23-.07-3.34-.1.47-9.97-2.13-19.82-9.31-27.91-11.09-12.49-30.87-15.16-42.55-2.02-11.1 12.49-7.8 30.92 7.46 38.12 7.1 3.35 15.01 4.3 22.77 4.66 1.34.06 2.68.11 4.02.16-.06 1.04-.11 2.08-.17 3.12-.21.44-.42.88-.64 1.32-1.22 2.44-.91 4.79.21 6.62-1.45 26.5-2.9 53-4.36 79.5-.24 4.43-.49 8.87-.73 13.3-3.16-.09-6.32-.18-9.48-.26-9.41-.26-20.16-1.94-29.32.89-8.82 2.72-13.92 10.06-14.87 19.03-1.75 16.5 8.87 34 24.37 39.8 15.1 5.66 33.39-1.92 38.95-17.2 3.18-8.74 2.78-19.03 3.15-28.34 17.07.47 34.14.95 51.2 1.42l12.06.33c.6 6.58 1.62 13.13 3.25 19.52 2.16 8.46 5.08 17.97 13.42 22.25 13.9 7.14 35.41-1.92 44.36-13.44 12.23-15.74-.09-34.44-17.07-39.08zm-6.38-143.89c11.08-.73 17.1 11.66 10.2 20.11-4.43 5.43-12.45 4.76-18.73 4.58-2.47-.07-4.95-.15-7.42-.23 1.47-9.05 4.57-23.71 15.94-24.46zm-111.99 21.37c-5.5-.26-11.36-.75-16.44-3.06-4.19-1.91-7.81-5.6-7.05-10.55.72-4.65 4.57-8.86 8.93-10.39 10.83-3.8 19.67 6.92 22.15 16.75-1.49 1.08-2.57 2.79-2.7 5.12-.04.77-.08 1.55-.13 2.32a728 728 0 01-4.76-.19zm-4.61 154.84c-3.52 11.15-18.08 13.14-26.72 6.85-4.62-3.37-7.85-8.53-9.45-13.97-1.41-4.8-2.71-12.8 2.52-15.81 5.56-3.19 14.81-1.36 20.85-1.19l15.01.42c0 .07 0 .14-.01.21-.42 7.62.13 16.14-2.18 23.49zm58.89-35.69c-14.14-.39-28.27-.78-42.41-1.18l1.14-20.9 3.66-66.74.57-10.48c.75-1.85 1.41-3.73 1.99-5.63 4.29.12 8.58.23 12.87.37 16.16.52 32.33 1.03 48.49 1.55-1.76 14.58-2.82 29.31-3.97 43.86-1.56 19.78-3.3 39.81-2.92 59.68l-19.42-.54zm64.81 39.04c-5.04 3.12-11.38 5.69-17.39 5.67-7.17-.03-8.68-6.44-10.34-12.31-1.66-5.88-2.7-11.87-3.33-17.91h.3c8.17.23 16.87-.29 24.88 1.56 5.57 1.28 12.53 4.59 13.61 10.93.91 5.34-3.6 9.49-7.74 12.05zM187.78 168.74c-7.12-.85-14.5.92-20.51 4.83s-10.36 9.86-12.46 16.67c-1.2 3.87-1.63 7.99-1.23 12.02.19 1.9 3.19 1.92 3 0-.81-8.31 2.08-16.81 8.03-22.72s14.75-8.81 23.17-7.8c1.91.23 1.9-2.77 0-3zM423.64 402.99c-.02 4.76-.46 9.51-1.37 14.18-.45 2.32-1.01 4.63-1.67 6.9-.56 1.91-1.13 3.84-2.19 5.54-2.49 4-7.2 3.08-11.17 2.43-4.82-.79-9.57-1.97-14.2-3.5-1.84-.6-2.63 2.29-.8 2.89a95.01 95.01 0 0012.31 3.17c3.58.66 7.76 1.68 11.35.61 3.33-1 5.25-3.82 6.46-6.9 1.42-3.59 2.29-7.48 2.98-11.27a81.78 81.78 0 001.3-14.05c0-1.93-2.99-1.93-3 0z"></path></svg>