<svg xmlns="http://www.w3.org/2000/svg" viewBox="0 0 600 600"><path fill="#d6d6e9" d="M215.56 87.82c-1.39-.58-3.03-.44-4.42 1-1.14 1.18-2.27 2.36-3.41 3.54 2.51-1.66 5.12-3.17 7.82-4.54zM400.63 472.36c-1.46 1.59-2.9 3.2-4.3 4.85-.93-.2-1.91-.04-2.81.69-1.19.96-2.37 1.93-3.54 2.9 3.49-4.76 6.97-9.52 10.46-14.28-.08-5.54.12-11.06.6-16.56a5.274 5.274 0 00-2.01-2.73c.26-.27.53-.53.79-.8 1.87-1.96 1.51-4.38.18-5.98.95-1.35 1.91-2.69 2.86-4.04.76-4.13 1.7-8.23 2.84-12.28-1.61-.87-3.69-.92-5.2.52l-3.09 2.97 1.29-1.93c2.13-3.19-1-6.97-4.16-6.76l7.53-10.11c2.62-3.51.22-7.53-3.01-7.59 3.27-4.66 6.47-9.36 9.65-14.08.2-3.99.32-7.96.29-11.92-.93-.2-1.91-.04-2.81.65-5.82 4.48-11.54 9.09-17.16 13.82 1.83-2.87 3.63-5.76 5.4-8.68 2.3-3.8-2.29-8.6-5.93-6.19-2.3 1.53-4.56 3.11-6.81 4.73 3.22-4.38 6.43-8.76 9.65-13.15 1.67-2.27.38-4.88-1.66-6.08L399.91 348c2.54-3.06.28-7.85-3.02-7.83 2.47-3.56 4.9-7.16 7.24-10.82s-2.4-8.81-5.93-6.19c-3.72 2.76-7.41 5.56-11.07 8.39 3.79-5.17 7.48-10.42 11.05-15.77 2.76-4.13-2.17-7.68-5.72-6.15a501.24 501.24 0 0013.17-18.45c2.65-3.89-2.39-8.21-5.93-6.19-1.93 1.1-3.83 2.24-5.72 3.42 2.48-3.43 4.92-6.89 7.29-10.41 1.76-2.61.35-5.08-1.82-6.08 1.91-2.13 3.81-4.26 5.72-6.39 3.42-3.81-.9-9.49-5.25-7.1-3.55 1.95-7.04 4.01-10.46 6.17 2.17-3.19 4.26-6.43 6.27-9.73 1.61-2.65-.43-6.23-3.03-6.86 3.33-4.73 6.47-9.62 9.4-14.66 2.13-3.66-2.32-8.93-5.93-6.19-3.51 2.67-7.02 5.34-10.53 8.02-.12-.07-.25-.13-.38-.19a467.427 467.427 0 0022.19-31.79c2.38-3.74-2.35-8.64-5.93-6.19-.28.19-.55.39-.82.59.25-.34.51-.68.76-1.02l.01-.01c.23-.31.46-.61.68-.92 3.25-4.42-3.35-8.4-6.8-5.48l-2.13 1.8c.09-.3.15-.6.17-.9 4.16-5.66 8.25-11.38 12.24-17.16 2.46-3.56-2.52-8.92-5.93-6.19l-.46.37c-.25-.98-.87-1.85-1.69-2.45 1.82-2.46 3.62-4.92 5.4-7.41 2.56-3.57-2.51-8.79-5.93-6.19-.85.65-1.69 1.31-2.54 1.96 1.22-1.56 2.44-3.13 3.66-4.7 2.91-3.78-.76-9.96-5.25-7.1-.73.47-1.46.95-2.19 1.42l10.88-11.21c3.52-3.62-1.03-9.73-5.25-7.1-6.65 4.14-13.1 8.6-19.34 13.35-.44-.23-.91-.37-1.43-.39.13-.19.25-.39.34-.59 8.8-8.95 17.49-18.02 26.07-27.2-.44-.95-.88-1.9-1.36-2.83-.16-.31-.32-.62-.48-.92-1.26-.38-2.48-.9-3.63-1.63-.8-.51-1.5-1.09-2.13-1.71-1.66.97-3.31 1.95-4.96 2.94-1.2-.68-2.64-.78-3.94.2l-13.21 9.91c1.68-1.78 3.35-3.56 5.03-5.33 3.35-3.56-1.22-10.23-5.25-7.1-3.03 2.35-6.06 4.71-9.09 7.06.22-3.24-3.26-6.53-6.48-4.4l-20 13.2c6.26-6.54 12.4-13.21 18.4-20.02 3.21-3.64-1.03-10.08-5.25-7.1-5.62 3.97-11.13 8.09-16.56 12.32a.138.138 0 00-.04-.03l6.73-7.24c3.33-3.58-1.14-10.14-5.25-7.1-1.35 1-2.7 2-4.06 3-.42.12-.83.32-1.22.64-2 1.6-4.03 3.16-6.04 4.74-.33.24-.66.49-.99.73-.64-2.73-3.57-4.94-6.33-3.04l-8.57 5.89c-.19-1.18-.89-2.29-1.84-3.06.91-.78 1.82-1.55 2.73-2.33 3.81-3.25-1.29-10.07-5.25-7.1-4.31 3.23-8.69 6.37-13.1 9.44.22-.29.45-.58.67-.87 2.87-3.85-.68-9.82-5.25-7.1-.78.46-1.55.94-2.32 1.41-1.26-1.75-3.51-2.71-5.55-1.24-1.88 1.35-3.76 2.69-5.63 4.04 0-2.15-1.53-4.24-3.51-4.7-.94.16-1.88.33-2.82.5-.05.03-.1.05-.15.09-.73.48-1.46.96-2.19 1.45a5.08 5.08 0 00-.99-.92c-12.81 2.4-25.68 5.46-36.35 10.53-2.18 1.04-4.32 2.17-6.38 3.44-.94.57-1.86 1.17-2.76 1.8-.26.18-1.78 1.33-1.72 1.26-3.45 2.79-6.81 6.36-8.81 9.18-.84 1.18-1.63 2.39-2.37 3.62 1.17.64 2.62.77 4.05 0 .19-.1.38-.21.57-.32.37 1.67 1.57 3.15 3.09 3.63-.75.96-1.52 1.9-2.26 2.87-1.81 2.36-.92 5.92 1.09 7.34.09.78.31 1.53.67 2.18-3.59 4.49-7.12 9.03-10.55 13.65-2.71 3.64.99 10.52 5.25 7.1l8.46-6.78c-4.97 6.22-9.87 12.51-14.69 18.86-2.75 3.63-.06 7.78 3.35 7.56-2.17 2.55-4.33 5.11-6.46 7.71-2.99 3.64 1.1 10.38 5.25 7.1.63-.5 1.26-.99 1.89-1.49-1.4 1.94-2.8 3.88-4.19 5.82-2.67 3.7 2.45 8.47 5.93 6.19 2.45-1.61 4.91-3.22 7.36-4.83.13.53.34 1.03.6 1.48-3.51 4.6-6.94 9.26-10.3 13.99-2.61 3.68 2.45 8.55 5.93 6.19.29-.19.57-.39.86-.58-5.11 6.51-10.21 13.02-15.32 19.53-3.56 4.54 1.78 10.05 6.13 6.4.43-.36.85-.72 1.28-1.08-1.12 1.77-2.21 3.57-3.27 5.38-2.32 3.94 2.24 8.36 5.93 6.19 1.94-1.15 3.89-2.29 5.83-3.44-1.72 2.48-3.43 4.98-5.1 7.51-1.16 1.74-.98 3.35-.12 4.53-3.29 4.39-6.59 8.78-9.88 13.18-3.47 4.63 1.7 9.97 6.13 6.4l4.03-3.25c.44.28.92.48 1.43.6-4.04 5.31-8.08 10.61-12.13 15.92-3.43 4.5 1.86 10.31 6.13 6.4l6.23-5.7c-2.15 3.13-4.27 6.28-6.34 9.46-1.26 1.92-.88 3.7.23 4.92-.64.74-1.3 1.47-1.93 2.22-3.67 4.33 2.31 10.69 6.13 6.4 1.02-1.14 2.04-2.29 3.05-3.43a205.99 205.99 0 00-4.76 10.74c-1.6 3.9 1.84 8.66 5.93 6.19 3.09-1.87 6.18-3.74 9.27-5.6-1.35 2.81-2.6 5.67-3.76 8.57-6.49 9.34-12.81 18.8-18.96 28.39-2.54 3.96 1.72 7.38 5.2 6.35l-.14.17c-.89 1.08-1.22 2.27-1.14 3.38l-6.96 9.18c-3.45 4.55 1.78 10.16 6.13 6.4l8.92-7.73c-3.85 6.01-7.56 12.13-11.13 18.34-2.12 3.68 2.3 8.9 5.93 6.19.41-.31.82-.61 1.22-.92.3.74.78 1.38 1.38 1.87-2.61 3.76-5.16 7.57-7.64 11.43-2.9 4.51 3.32 8.68 6.8 5.48a460.3 460.3 0 017.73-6.93c.03.02.06.04.08.06-3.18 4.06-6.4 8.09-9.68 12.07-2.04 2.47-1.15 5.45.76 6.88-.91 1.7-1.82 3.4-2.71 5.12-2.47 4.8 3.09 8.55 6.8 5.48l5.23-4.32c-1.35 2-2.68 4.02-4 6.04-2.33 3.58 1.67 7.57 4.97 6.64.85 1 2.05 1.65 3.32 1.6.1.2.21.39.34.58a445.448 445.448 0 00-19.34 27.33c-2.9 4.45 3.34 8.77 6.8 5.48 2.33-2.21 4.66-4.42 6.98-6.64-1.55 3.13-3.01 6.31-4.35 9.56-1.89 4.56 3 9.18 6.8 5.48l11.42-11.09c.1.28.24.55.39.82-.44 3.53 4.69 6.24 7.61 3.54 2.89-2.67 5.82-5.3 8.77-7.9-4.03 5.89-7.96 11.85-11.77 17.9-2.89 4.59 3.29 8.57 6.8 5.48 1.58-1.39 3.15-2.8 4.7-4.21.44 2.94 3.28 5.34 6.29 3.37 4.77-3.12 9.38-6.47 13.86-10.01 1.58 1.32 3.94 1.61 5.69-.25 2.5-2.65 5.11-5.17 7.81-7.55 1.21.32 2.54-.01 3.67-1.42l1.83-2.28c-1.14 2.02-.5 4.63.95 6.11.27.72.73 1.35 1.3 1.84-1.98 4.04-3.96 8.09-5.94 12.13-2.35 4.8 3.05 8.62 6.8 5.48l18.53-15.47-3.75 6.09c-2.3 3.73 2.33 8.7 5.93 6.19 2.27-1.59 4.54-3.18 6.82-4.77 1.46 1.49 3.89 1.97 6.01.11.21-.18.41-.37.62-.55-.52 1.17-1.04 2.34-1.54 3.52-1.99 4.68 2.95 8.96 6.8 5.48 4.34-3.92 8.69-7.84 13.03-11.76a92.76 92.76 0 00-3.49 10.53c-1.05 3.92 3.09 6.91 6.36 5.11 8.48-4.68 16.81-9.62 25-14.81-2.35 2.96-4.69 5.92-7.04 8.88-3.49 4.41 2.16 10.63 6.13 6.4 1.77-1.89 3.57-3.76 5.39-5.61-.16 3.64 4.44 6.36 7.41 3.41.88-.88 1.75-1.77 2.63-2.65.99 0 1.99-.39 2.81-1.3 6.99-7.74 13.68-15.75 20.1-24-.65-5.01-1.1-10.04-1.34-15.08zm-16.65-250.32c-.41.56-.83 1.12-1.24 1.68-.06-.14-.13-.27-.21-.4.48-.43.96-.85 1.45-1.28zm-167.75 16.7c1.09-1.51 2.2-3 3.34-4.47.48.63 1.12 1.11 1.86 1.41l-5.19 3.06zm19.15 135.77c-.45-.14-.92-.19-1.41-.12.41-.68.81-1.37 1.22-2.05.27-.18.54-.38.8-.65-.03.69.09 1.36.32 1.98l-.93.84zm64.29-99.24l-3.33 3.96-8.91 10.59c-1.63 1.82-3.25 3.65-4.87 5.47.4-1.21.1-2.4-.59-3.35.76-1.29 1.49-2.59 2.18-3.91.55-.59 1.1-1.18 1.64-1.77 4.69-3.58 9.31-7.25 13.88-10.99zm-23.72-139.51c.37-.51.73-1.02 1.1-1.52 3.44-2.37 6.88-4.73 10.32-7.1-.04.28-.05.56-.03.84-4.25 3.2-8.41 6.52-12.48 9.95.37-.72.73-1.45 1.09-2.18zm3.01 205.02c13.4-14.98 27.16-29.59 41.27-43.85.2-.13.4-.25.6-.42 1.16-.96 2.32-1.91 3.47-2.87l-9.84 11.7c-15.79 15.34-31.14 31.16-45.72 47.7 3.41-4.09 6.81-8.18 10.22-12.27zm-19.22 148.31c.43-.63.86-1.25 1.3-1.87.11.16.24.32.37.47-.55.47-1.11.94-1.67 1.41zm-2.73-98.38c-.81-.32-1.71-.44-2.59-.28 21.06-25.05 42.12-50.09 63.18-75.14-.52 1.51-.09 2.89.84 3.89-6.02 7-12.04 14-18.05 21.01-14.46 16.84-28.92 33.68-43.38 50.53zm46.62 94.2l-9.47 7.91c.6-1.22 1.19-2.43 1.79-3.65l8.04-6.75c-.44.83-.52 1.69-.37 2.5zm13.3-110.53c-.13.22-.23.44-.32.66-5.31 6.18-10.64 12.34-16.01 18.47 6.44-8.03 12.85-16.07 19.24-24.14.05 0 .11 0 .16-.02-1.04 1.66-2.06 3.34-3.07 5.03zm8.88-37.63c-2.86 2.84-5.71 5.71-8.54 8.59 4.11-5.05 8.23-10.1 12.34-15.15l1.86-1.71c.38-.1.77-.26 1.13-.51.72-.5 1.43-1.02 2.15-1.52-2.98 3.44-5.96 6.87-8.94 10.31zm1.75-97.61c1.12-1.32 2.25-2.62 3.36-3.95 2.12-1.95 4.25-3.87 6.38-5.8.05.19.14.37.22.55-3.31 3.08-6.63 6.14-9.96 9.2zm17.64 264.44a82.03 82.03 0 015.58-11.03c.06.09.11.18.17.27l-.11.17c-1.43 2.24-.24 4.98 1.71 6.22-2.44 1.48-4.89 2.94-7.35 4.37zm20.74-329.02a852.38 852.38 0 00-7.41 6.07c2.44-2.15 4.94-4.22 7.49-6.22-.03.05-.06.1-.08.15zm1.71-41.13l-3.74 2.96 1.98-2.34c.19-.22.35-.45.49-.68 2.16-1.76 4.33-3.51 6.49-5.27-1.74 1.78-3.48 3.56-5.22 5.33z"></path><path fill="#067790" d="M402.05 441.38c.08-1.67.16-3.34.26-5 1.74-31.6 2.78-63.24 3.1-94.89.65-64.27-1.67-128.56-6.86-192.62 1.85-.41 3.54-1.79 3.75-4.17 1.4-15.4-5.95-30.93-18.84-39.57-15.48-10.37-35.51-8.79-53.23-8.3-21.29.59-42.57 1.18-63.86 1.76-11.83.33-25.36-.78-37.13 2.59-1.19.5-2.36 1.01-3.49 1.55-2.18 1.04-4.32 2.17-6.38 3.44-.94.57-1.86 1.17-2.76 1.8-.26.18-1.78 1.33-1.72 1.26-1.08.87-2.15 1.83-3.17 2.81-8.88 10.12-12.29 25.03-7.59 37.73-.48 61.93-.96 123.86-1.45 185.78-.24 30.69.84 61.79-3.57 92.25-3.51 24.24-8.11 55.21 14.47 72.26 10.17 7.68 23.18 9.36 35.58 9.69 15.29.4 30.64-.03 45.94-.1 15.93-.07 31.86-.13 47.8-.2 7.18-.03 14.36 0 21.53-.09 6.14-.08 12.46-.44 18.12-3.01 10.61-4.82 14.98-15.88 16.61-26.71.57-3.76.99-7.54 1.34-11.35-.22-9.02.26-18.04 1.57-26.92zM319.3 108.97c2 .24 3.98.61 5.9 1.21.78.22 1.54.5 2.29.82-.31-.01-.6.1-.89.33-3.49 1.19-7.47 1.33-11.48 1.12-.03-1.46-.65-2.92-1.74-3.78 1.98 0 3.96.07 5.93.3zm-48.5.47c1.27.06 2.52.2 3.78.36-.04.01-.08.03-.11.04-1.33-.11-2.66-.24-3.98-.41.11 0 .22.01.32.02zm124.21 289.39c-.57 15.15-1.29 30.3-2.19 45.44-.77 13.08-.3 27.28-3.81 39.99-1.38 5-3.7 9.93-8.21 12.84-5.26 3.39-11.98 3.22-18.01 3.27-15.27.11-30.54.13-45.8.19-15.27.06-30.54.13-45.8.19-12.67.05-26.06 1.13-38.51-1.78-12.59-2.94-21.46-11.24-25.31-23.54-4.22-13.47-2.18-27.72-.15-41.38 4.27-28.75 4.15-57.57 4.37-86.57l1.53-196.26c.38-.81.44-1.8.02-2.93l.03-3.52c.01-1.7-.76-2.88-1.85-3.59-1.16-9.21 2.2-18.68 9.13-25.26 5.22-4.95 11.9-6.88 18.96-7.45 5.63-.45 11.31-.58 16.97-.68-.35.84-.61 1.75-.75 2.76-1.2 8.52 6.95 13.61 14.36 14.48 10.54 1.23 21.63.44 32.23.56 10.14.11 21.53 1.26 30.76-3.82 6.24-3.43 10.53-9.71 10.79-16.59 8.29-.06 16.52.5 24.28 2.74 9.99 2.89 17.75 9.64 21.93 18.32-1.31.63-2.24 1.9-2.06 3.85 5.38 59.76 8.25 119.74 8.54 179.74.14 29.67-.34 59.34-1.44 88.99z"></path><path fill="#FFFFFF" d="M397.76 447.86c1.45-2.33 2.91-4.67 4.36-7 .87-5.79 2.09-11.52 3.69-17.15.19-2.8.41-5.61.65-8.42-2.57-2.23-6.97-2.6-9.34 1.12l-1.95 3.06c-.2-.19-.42-.37-.64-.54 2.11-2.98 4.25-5.94 6.45-8.86 3.15-4.18-1.58-9.33-5.93-9.07.72-1.24 1.45-2.49 2.17-3.73 2.81-4.85-1.33-8.92-5.58-8.72 3.56-7.44 7-14.95 10.29-22.52 1.6-3.68-.01-6.86-2.58-8.19.54-1.09 1.1-2.17 1.64-3.26 2.79-5.68-4.94-12.96-9.45-7.27-1.59 2.01-3.19 4.02-4.78 6.03 3.85-8.64 7.7-17.27 11.55-25.91 2.07-4.65-.99-8.43-4.66-8.79 3.46-6.82 6.92-13.64 10.38-20.45 2.89-5.68-4.99-12.93-9.45-7.27-.35.44-.7.89-1.05 1.33 3.9-9.12 7.79-18.25 11.69-27.37 3.03-7.09-5.73-12.35-10.39-6.06-1.38 1.86-2.76 3.73-4.14 5.59 3.58-8.56 7.17-17.12 10.75-25.68 1.82-4.35-2.24-7.45-6.13-7.32 3.24-7.7 6.47-15.41 9.71-23.11 2.8-6.67-7.36-9.76-11-4.62l-.32.45 9.45-26.34c1.93-5.38-4.7-9.06-8.88-6.75.16-.58.33-1.17.48-1.76.78-3.02-.8-5.53-3.06-6.75 3.13-8.2 6.26-16.39 9.39-24.59 2.16-5.65-5.39-9.41-9.51-6.32-.87-1.19-2.28-1.99-3.84-2.28.19-.54.38-1.09.58-1.63.02-.06.03-.11.05-.17 2.15-.2 4.14-1.51 4.86-4.23 2.03-7.71-5.17-9.83-11.17-9.92-.64 0-1.22-.09-1.76-.21.09-2.65-1.7-5.21-3.98-6.31.72-2.4-.22-4.42-1.84-5.68 0-1.98.14-3.89.23-5.45.45-7.47-10.82-7.68-11.95-.71-.97.24-1.92.82-2.75 1.82l-3.88 4.65c-2.93-.05-6.04 1.26-8.31 3.36-1.45 1.34-2.65 2.97-3.76 4.66-1.05-.77-2.3-1.23-3.51-1.14-2.84.2-5.04-.2-7.65-1.28-7.14-2.96-10.26 8.65-3.2 11.57 1.4.58 2.83 1.01 4.27 1.3-.26 2.63-.53 5.25-.79 7.88-.64 6.37 8.22 7.53 11.21 3.03 2.41-3.62 4.82-7.24 7.22-10.86 1.03-1.54 2.01-3.15 3.1-4.66.18-.39.41-.74.67-1.06l-1.69 8.14c-.54 2.6.54 4.84 2.27 6.19-1.53 4.35-3.06 8.7-4.6 13.06-2.11 6.01 5.36 9.18 9.51 6.1l-.84 3.99c-.71 3.4 1.64 6.36 4.45 7.34-1.08 3.06-2.17 6.12-3.25 9.19-1.24 3.51.69 5.97 3.36 6.86-1.16 3.07-2.32 6.14-3.48 9.2-1.69 4.47 2.66 7.75 6.59 7.4-.6 1.58-1.21 3.16-1.81 4.74-2.17 5.68 5.49 9.46 9.59 6.27-4.28 7.59-8.56 15.19-12.83 22.78-3.05 5.41 3.04 10.37 7.52 8.64-.9 2.51-1.8 5.01-2.7 7.52-1.87 5.21 3.41 8.19 7.64 6.98-4.55 10.84-9.11 21.68-13.66 32.53-1.84 4.37 2.28 7.49 6.2 7.32-2.46 5.87-4.91 11.73-7.37 17.6-2.83 6.76 7.31 9.61 11 4.62l3.24-4.38-9.3 21.78c-1.19 2.79-1.03 5.76 1.55 7.74 1.06.82 2.55 1.28 4.02 1.26l-10.24 20.17c-2.96 5.84 2.95 10.3 7.68 8.23l-11.35 25.48c-1.64 3.68.95 8.16 4.22 9.17-2.29 3.5-4.62 6.99-7.01 10.43-3.95 5.7 3.74 10.86 8.67 7.68a691.16 691.16 0 01-15.72 26.97c-1.78 2.9-.93 5.55.98 7.15-7.74 7.07-15.68 13.9-23.82 20.5-2.49-1.6-5.99-1.46-8.11 1.96a66.738 66.738 0 01-8.42 10.88c-6.99 5.21-14.1 10.27-21.36 15.14-6.5 4.36-.92 13.57 6.07 10.36 7.38-3.39 14.09-7.9 19.99-13.3 1.93.93 4.35.77 6.47-1.26.91-.87 1.81-1.74 2.72-2.61-.14.69-.28 1.39-.41 2.09-.94 5.3 5.77 10.86 10.06 5.84.26-.31.52-.61.79-.92 2.1 2.42 5.76 3.34 8.46.28.32-.36.62-.73.94-1.09 1.36 3.99 7.66 5.69 11.06 1.27.84-1.09 1.66-2.19 2.49-3.28 2.08.24 4.31-.48 5.86-2.59l.19-.25c.13.1.27.19.41.28-.63 1.34-1.27 2.68-1.88 4.03-2.55 5.64 4.78 13.02 9.45 7.27l3.84-4.72c1.84 3.36 6.43 5.29 9.38 1.65.87-1.07 1.74-2.15 2.6-3.22.91.54 1.94.88 3.01.83l1.6-.21c1.02-.29 1.9-.8 2.65-1.54.52-.52 1.04-1.04 1.57-1.56.55-.51.94-1.11 1.19-1.79 4.03-1.6 4.58-7.39 1.63-10.12.14-.17.27-.34.41-.5 2.99-3.69.87-8.37-2.33-9.97.38-.57.74-1.15 1.14-1.72 2.36-3.4-.11-7.36-3.37-8.69 2.26-3.39 4.58-6.75 6.99-10.05 1.95-2.67.74-5.74-1.5-7.57z" opacity="0.3"></path><path fill="#4e4f66" d="M333.12 326.6c-.74-1.35-1.51-2.68-2.29-4.01 1.35-1.11 2.16-3.01 1.82-4.83-.87-4.69-3.25-8.67-6.63-11.64 2.44-2.53 4.59-5.35 6.4-8.49 1.02-1.76.71-3.51-.26-4.78.13-.19.26-.38.39-.58 1.45-2.22.34-4.68-1.52-5.96-.08-.53-.24-1.02-.47-1.48.44-1.07.79-2.18 1.04-3.34.58-2.73-1.26-5.82-4.35-5.7-4.78.2-9.31 1.29-13.45 3.14-1.44.32-2.97.91-4.5 1.68-1.08-.88-2.52-1.28-3.94-.8-2.16.73-4.35 1.75-6.44 3.02-1.17-.31-2.52-.48-3.95-.53-.37-.58-.81-1.15-1.34-1.68-3.31-3.35-7.23-3.57-10.36-2.08-.49-.21-.99-.38-1.52-.5-1.14-.62-2.37-.57-3.44-.1-.55.09-1.12.22-1.69.41-6.77 2.26-11.51 10.14-13.27 16.63-.36 1.31-.62 2.65-.79 4-5.34 11.86-5.27 28.32 7 35.13.6.33 1.2.62 1.78.87 1.02 3.82 2.76 7.2 5.76 8.63.03.02.07.03.1.04.03.07.05.15.08.22 1.2 2.91 5.01 4.74 7.54 1.99.81-.88 1.57-1.79 2.28-2.72 1.98 1.03 4.5.79 5.8-1.6.6-1.1 1.16-2.24 1.69-3.41 1.41 2.04 3.15 3.68 5.31 4.58 3.39 1.41 5.91.62 7.71-1.22.84.44 1.75.76 2.73.91 1.38 1.51 3.01 2.64 4.94 2.99 3.69.67 5.96-.77 7.12-3.5 2.94 1.6 6.62-.07 6.83-3.76.09-1.56.08-3.12.03-4.67 2.88-.25 5.55-3.8 3.86-6.9zM318.09 249.41c-1.85-.8-3.83-.35-5.7.62-1.56-.1-3.28.84-4.56 2.14-1.74 1.76-3.18 3.81-4.36 6.02-1.81 2.54-3.24 5.38-4.33 8.4-.84 2.34 1.72 5.04 3.86 4.18.01 0 .02-.01.04-.02.77 1.53 2.43 2.46 4.16 1.23 3.67-2.61 20.46-18.43 10.89-22.59z"></path><path fill="#067790" d="M282.55 107.44c-.55-.93-1.62-1.82-2.7-2.07-.8-.18-1.57-.15-2.28.03-2.63-.31-5.39 1.16-6.03 3.89-.34 1.47-.08 3.34 1.16 4.38.84.7 1.63 1.23 2.7 1.51.8.21 1.65.24 2.47.12h.13c1.17-.05 2.38-.43 3.19-1.32.29-.32.51-.66.7-1.01.47-.61.85-1.31 1.1-2.07.36-1.07.1-2.52-.45-3.47z"></path><path fill="#252634" d="M355.22 95.85c1.93 0 1.93-3 0-3s-1.93 3 0 3z"></path><path fill="#252634" d="M356 93.39c-27.55.93-55.1 1.85-82.65 2.78-13.49.45-27.07.66-40.48 2.29-10.52 1.28-21.63 4.22-27.56 13.81s-5.07 22.52-3.84 33.53c.21 1.9 3.21 1.92 3 0-1.07-9.61-2.18-20.5 2.09-29.53 2.15-4.55 5.62-8.1 10.07-10.44 4.64-2.44 9.93-3.53 15.08-4.22 12.95-1.74 26.12-1.92 39.16-2.36s26.55-.89 39.83-1.34c15.1-.51 30.2-1.01 45.31-1.52 1.93-.06 1.93-3.06 0-3z"></path><path fill="#252634" d="M358.87 96.86c8.42-1.83 17.22.24 24.37 4.94 7.72 5.08 12.65 12.91 14.01 22.02.9 6.02.74 12.22.85 18.3s.21 12 .3 17.99c.18 12.27.32 24.54.42 36.81.37 48.81 0 97.62-1.08 146.41-.54 24.42-1.31 48.83-2.05 73.25l-1.11 36.51c-.18 6.08-.37 12.17-.55 18.25-.16 5.28-.08 10.74-1.66 15.84-2.87 9.25-11.66 13.09-20.52 14.57-4.51.76-9.09.94-13.66 1.11a1731.58 1731.58 0 01-91.14 1.11c-11.9-.17-23.93-.06-35.79-.96-5.59-.42-10.84-1.87-15-5.8-3.68-3.48-6.41-8-8.55-12.56-5.09-10.86-5.11-22.43-4.96-34.18.16-12.19.31-24.37.47-36.56.08-5.96.15-11.92.23-17.87.02-1.93-2.98-1.93-3 0-.16 12.73-.33 25.46-.49 38.19-.08 6.36-.17 12.72-.24 19.09s-.1 12.31.89 18.4c1.64 10.08 6.28 21.13 14.01 28.07 8.28 7.43 20.09 6.46 30.47 6.74 25.49.69 51 .82 76.5.38 12.75-.22 25.49-.58 38.23-1.09 8.6-.34 17.89-.96 25.51-5.38 3.85-2.23 7.03-5.52 8.86-9.6 2.06-4.59 2.5-9.65 2.7-14.62.5-12.57.77-25.15 1.15-37.73.76-25.17 1.57-50.35 2.24-75.53 1.34-50.97 1.89-101.96 1.64-152.95-.12-25.57-.31-51.15-.98-76.71-.26-9.97-1.77-19.4-8.38-27.23-5.53-6.55-13.61-11.11-22.07-12.44-4.15-.65-8.3-.55-12.4.35-1.89.41-1.09 3.3.8 2.89z"></path><path fill="#252634" d="M201.29 145.93c.55 33.52.75 67.05.6 100.57-.15 33.35-.65 66.71-1.5 100.05-.48 18.81-1.07 37.62-1.77 56.42-.07 1.93 2.93 1.93 3 0 1.25-33.5 2.14-67.02 2.69-100.54.54-33.35.73-66.7.58-100.06-.09-18.81-.29-37.63-.59-56.44-.03-1.93-3.03-1.93-3 0zM261.61 102.99c-3.11 4.18-.64 10.09 3.27 12.77 5.07 3.48 12.1 2.74 17.92 2.76l21.99.06 10.75.03c3.06 0 6.17.16 9.23-.09 4.82-.41 10.13-2.24 10.91-7.68.35-2.44-.37-5.77 2.21-7.17 2.17-1.17 4.98-.83 7.34-.67 7.16.48 14.32.93 21.48 1.45 3.12.23 6.28.56 9.21 1.72 2.44.96 4.65 2.49 6.51 4.32 10.55 10.33 9.15 26.26 7.74 39.67-.2 1.92 2.8 1.9 3 0 1.3-12.36 2.43-25.85-4.61-36.82-2.86-4.46-6.87-8.13-11.84-10.05-2.9-1.12-6.02-1.51-9.1-1.76-3.53-.29-7.08-.49-10.61-.73s-6.87-.46-10.31-.7c-2.75-.19-5.6-.52-8.31.19-2.39.63-4.34 2.19-5.09 4.59-.79 2.53.21 5.68-1.52 7.88-1.33 1.69-3.71 2.3-5.73 2.61-2.88.44-5.85.25-8.75.24l-21.49-.06-12-.03c-3.62-.01-7.3.16-10.91-.22-2.96-.31-6.19-1.21-8.09-3.66-1.61-2.07-2.24-4.92-.59-7.13 1.15-1.55-1.45-3.05-2.59-1.51z"></path><path fill="#252634" d="M261.3 102.34c-7.04.47-14.09.93-21.13 1.4-6.03.4-12.32.39-18.21 1.89-5.31 1.35-9.84 4.37-12.45 9.28-2.73 5.15-3.43 11.21-3.75 16.94-.43 7.81.26 15.63.93 23.41.17 1.91 3.17 1.93 3 0-.57-6.49-1.13-13-1.06-19.52.06-5.75.43-11.81 2.51-17.24 1.92-5.01 5.73-8.33 10.86-9.78 5.45-1.55 11.3-1.53 16.91-1.91 7.46-.49 14.92-.99 22.37-1.48 1.92-.13 1.93-3.13 0-3z"></path><path fill="#252634" d="M206.63 154.52c.85 30.89 1.29 61.8 1.32 92.71a3490.546 3490.546 0 01-2.82 144.02c-.08 1.93 2.92 1.93 3 0a3499.959 3499.959 0 002.53-184.9c-.22-17.28-.57-34.56-1.04-51.83-.05-1.93-3.05-1.93-3 0z"></path><path fill="#252634" d="M205.01 388.53c0 16.44.11 32.88.34 49.32.21 15.09-.5 31.22 5.23 45.5 2.5 6.24 6.85 12.62 13.82 14.14 1.88.41 2.69-2.48.8-2.89-5.9-1.29-9.59-6.76-11.73-12.05-2.69-6.66-3.87-13.85-4.43-20.97-.59-7.56-.57-15.16-.68-22.73s-.19-15.61-.25-23.42c-.07-8.97-.1-17.94-.1-26.9 0-1.93-3-1.93-3 0z"></path><path fill="#252634" d="M222.59 498.13c5.51 1.19 11.18 1.18 16.79 1.35 5.87.17 11.75.34 17.62.5 11.58.3 23.17.54 34.76.61 11.75.07 23.49-.05 35.23-.45 10.94-.37 21.99-.74 32.86-2.07 9.89-1.21 20.17-3.8 27.26-11.27 1.33-1.4-.79-3.52-2.12-2.12-6.12 6.44-14.88 8.93-23.43 10.16-4.88.7-9.83 1-14.75 1.32-5.61.37-11.23.65-16.85.87-22.82.88-45.67.63-68.5.06-6.45-.16-12.91-.34-19.36-.53s-12.62 0-18.73-1.32c-1.88-.41-2.69 2.48-.8 2.89z"></path><path fill="#252634" d="M385.78 489.97c3.39-10.24 4.71-21 5.42-31.72.73-11.14 1.07-22.31 1.46-33.47.8-22.76 1.3-45.53 1.49-68.31.11-12.88.12-25.77.04-38.65-.01-1.93-3.01-1.93-3 0 .15 22.69 0 45.38-.46 68.07s-1.08 45.13-2.26 67.66c-.63 12.03-1.77 24.12-5.59 35.62-.61 1.84 2.29 2.62 2.89.8z"></path><path fill="#252634" d="M389.91 150.05c.74 22.69 1.26 45.39 1.56 68.09.3 22.7.37 45.41.22 68.11-.08 12.81-.24 25.61-.46 38.42-.03 1.93 2.97 1.93 3 0 .4-22.7.58-45.4.53-68.11-.05-22.7-.31-45.41-.8-68.1-.28-12.8-.63-25.61-1.04-38.41-.06-1.93-3.06-1.93-3 0zM278.29 106.64c.03.06.22.37.08.16-.12-.18 0 .04.03.12.03.1.06.2.08.31 0 .04.01.09.03.13.05.18-.02-.31-.02-.13 0 .2.03.39.02.59 0 .07-.04.42 0 .16s-.02.1-.03.16c-.04.21-.1.42-.17.62-.01.04-.04.09-.05.13-.04.15.05-.14.06-.14-.07.06-.12.25-.16.33-.09.18-.2.35-.31.52-.04.05-.18.31-.08.11.08-.16.05-.06 0 0s-.1.12-.15.17c-.14.15-.29.28-.43.42-.2.18.24-.16.01 0-.1.07-.2.14-.31.2-.09.05-.18.11-.28.15-.06.03-.31.18-.11.06.19-.12-.08.02-.16.05-.1.03-.2.06-.31.08-.04 0-.09.02-.13.03-.26.05.1-.03.13-.02-.05-.03-.22.02-.28.02h-.32c-.34 0 .23.06 0 0-.21-.05-.4-.1-.6-.17-.25-.08.27.14.03.01-.11-.06-.21-.11-.31-.17-.08-.05-.15-.09-.23-.14-.04-.02-.07-.05-.11-.08-.16-.1.23.2.09.07-.15-.14-.32-.28-.46-.43-.06-.07-.12-.14-.18-.2-.24-.27.13.2-.02-.02-.12-.18-.23-.35-.34-.54-.05-.09-.09-.19-.14-.29-.08-.14.06.15.06.15 0-.04-.04-.09-.05-.13-.07-.2-.14-.4-.19-.61l-.06-.31c-.05-.27.02.32 0 .04-.01-.21-.02-.41-.01-.62 0-.05.04-.43 0-.15s.03-.09.04-.15c.02-.09.04-.17.07-.26.01-.04.03-.08.04-.13.07-.21.1-.03-.03.07.1-.07.22-.4.29-.51.02-.03.07-.08.07-.11 0 0-.21.24-.1.13.08-.08.15-.17.23-.25.06-.06.12-.12.19-.17.25-.24-.21.14 0 0 .17-.11.33-.22.51-.31.07-.04.16-.06.23-.11-.3.21-.15.06 0 .01.19-.07.38-.12.58-.16.08-.02.45-.08.18-.04s.08 0 .15 0c.23-.01.46-.01.7 0 .07 0 .41.04.15.01s.11.02.18.04c.21.05.42.11.62.18.04.01.08.03.12.05.17.06-.31-.15-.08-.03.09.05.18.09.27.14.1.06.2.11.29.18.04.02.07.05.1.07.21.14-.2-.18-.07-.05.15.15.31.29.45.45.16.17-.18-.27 0 0 .07.11.14.22.2.33.38.69 1.38.97 2.05.54s.95-1.32.54-2.05c-2.32-4.19-9.71-3.67-10.82 1.24-.53 2.36.48 4.87 2.37 6.33.95.73 2.12 1.18 3.33 1.15 1.31-.03 2.49-.55 3.49-1.37 2.12-1.74 2.92-4.89 1.64-7.35-.36-.7-1.39-.96-2.05-.54-.71.46-.93 1.31-.54 2.05zM300.44 280.4c-8.28-8.5-22.47-8.22-31.56-1.21-10.23 7.89-13.61 21.56-11.59 33.87 1.14 6.94 3.88 13.59 7.38 19.67 3.26 5.66 7.46 11.42 13.5 14.33 2.87 1.39 6.1 2.17 9.3 1.98s6.01-1.4 8.63-3.29c1.19-.86 2.41-1.87 3.82-2.33 1.52-.5 2.81.07 3.99 1.05 2.32 1.93 4.28 3.81 7.3 4.59 6.23 1.61 13.13-1.01 17.56-5.46 5.34-5.37 7.84-12.75 10.15-19.78.21-.65-.15-1.34-.69-1.69-5.77-3.74-9.35-10.5-9.09-17.39s4.29-13.09 10.14-16.42c.54-.31.91-1.08.69-1.69-2.18-5.99-7.34-10.11-13.3-12-6.76-2.15-14-1.06-20.46 1.59-4.08 1.68-7.9 3.88-11.57 6.31-1.6 1.06-.1 3.66 1.51 2.59 7.14-4.73 15.41-9.13 24.24-8.63 6.87.38 14.23 4.17 16.69 10.94l.69-1.69c-6.78 3.86-11.33 11.19-11.63 19.01s3.94 15.68 10.58 19.98l-.69-1.69c-1.9 5.78-3.86 11.84-7.75 16.65-3.39 4.19-8.48 7.12-13.99 6.85-2.55-.12-4.83-1.09-6.72-2.78-2.03-1.81-4.07-3.77-7.02-3.49s-5.14 2.49-7.54 4.01-5.42 2.07-8.32 1.7c-6.23-.79-11.08-5.25-14.56-10.19-3.65-5.19-6.58-11.03-8.44-17.1-3.47-11.3-2.71-24.44 5.37-33.68 3.96-4.53 9.38-7.51 15.43-7.96s11.7 1.27 15.82 5.5c1.35 1.39 3.47-.74 2.12-2.12z"></path><path fill="#252634" d="M299.27 269.61c.86-7.84 6.25-14.98 13.46-18.12 1.2-.52 4.61-2.08 4.84.2.18 1.8-.89 4.07-1.63 5.67a28.422 28.422 0 01-7.04 9.43 27.412 27.412 0 01-11.84 6.11c-1.88.44-1.08 3.33.8 2.89 9.44-2.22 17.48-9.15 21.19-18.1.87-2.1 1.89-4.63 1.41-6.94-.54-2.61-3.05-3.53-5.45-3.13-4.61.77-9.09 4.01-12.16 7.4-3.68 4.07-5.98 9.13-6.57 14.58-.21 1.92 2.79 1.9 3 0z"></path></svg>