<svg xmlns="http://www.w3.org/2000/svg" viewBox="0 0 300 300"><path fill="#067790" d="M115.28 23.94c-47.15 0-85.37 38.23-85.37 85.37s38.22 85.37 85.37 85.37c2.02 0 4.02-.07 6-.21 42.37-2.94 76.22-36.79 79.16-79.16.14-1.98.21-3.98.21-6 0-47.14-38.22-85.37-85.37-85.37zm6 164.52c-1.98.14-3.98.22-6 .22-43.76 0-79.37-35.6-79.37-79.37s35.61-79.37 79.37-79.37 79.37 35.61 79.37 79.37c0 2.02-.08 4.02-.22 6-2.93 39-34.16 70.22-73.15 73.15z"></path><path fill="#067790" d="M230.36 109.31h-78.2c-20.37 0-36.88 16.51-36.88 36.88v78.2c0 20.37 16.51 36.88 36.88 36.88h78.2c20.37 0 36.88-16.51 36.88-36.88v-78.2c0-20.37-16.51-36.88-36.88-36.88zm30.88 115.08c0 17.03-13.85 30.88-30.88 30.88h-78.2c-17.03 0-30.88-13.85-30.88-30.88v-78.2c0-17.03 13.85-30.88 30.88-30.88h78.2c17.03 0 30.88 13.85 30.88 30.88v78.2z"></path><path fill="#067790" d="M194.43 115.31c-2.93 39-34.16 70.22-73.15 73.15v-42.27c0-17.03 13.85-30.88 30.88-30.88h42.27z"></path></svg>