<?xml version="1.0" encoding="UTF-8" standalone="no"?>
<!DOCTYPE svg PUBLIC "-//W3C//DTD SVG 1.1//EN" "http://www.w3.org/Graphics/SVG/1.1/DTD/svg11.dtd">
<svg width="100%" height="100%" viewBox="0 0 312 100" version="1.1" xmlns="http://www.w3.org/2000/svg" xmlns:xlink="http://www.w3.org/1999/xlink" xml:space="preserve" xmlns:serif="http://www.serif.com/" style="fill-rule:evenodd;clip-rule:evenodd;stroke-linejoin:round;stroke-miterlimit:2;">
    <g transform="matrix(1,0,0,1,-87.8644,-900)">
        <g transform="matrix(0.127393,0,0,0.183978,427.836,620.026)">
            <g id="Logo-blanc" serif:id="Logo blanc" transform="matrix(2.59847,0,0,3.72057,-7657.79,-6802.43)">
                <g transform="matrix(3.02091,-3.60142e-32,1.86178e-32,1.46091,1654.58,922.528)">
                    <g id="Pictogramme">
                        <path d="M187.864,925C187.864,911.202 176.662,900 162.864,900L112.864,900C99.067,900 87.864,911.202 87.864,925L87.864,975C87.864,988.798 99.067,1000 112.864,1000L162.864,1000C176.662,1000 187.864,988.798 187.864,975L187.864,925ZM139.269,948.072C139.269,948.072 139.27,934.155 139.269,926.637C139.269,925.715 140.046,925.088 140.935,925.158C144.98,925.473 148.629,926.668 151.882,928.743C157.427,932.28 161.23,937.842 162.453,944.298C163.885,951.852 161.527,959.603 156.182,965.115C152.233,969.188 147.01,971.655 141.331,972.188C140.791,972.238 140.416,972.218 140.204,972.127C139.627,971.878 139.262,971.339 139.262,970.716C139.264,966.824 139.267,958.754 139.268,958.73C139.276,957.856 140.001,957.353 140.541,957.281C147.353,956.368 150.633,951.908 150.633,946.453C150.633,941.729 148.195,939.219 144.87,939.219L143.762,939.219L143.762,941.803C143.762,944.935 142.5,947.587 139.269,948.072ZM135.003,957.24C135.849,957.292 136.367,957.901 136.46,958.595C136.461,958.608 136.459,966.68 136.458,970.7C136.458,971.148 136.301,971.519 135.987,971.814C135.458,972.309 134.892,972.232 134.232,972.167C130.528,971.798 127.134,970.655 124.05,968.738C118.749,965.444 114.973,960.234 113.508,954.166C112.709,950.859 112.637,947.176 113.387,943.74C115.521,933.952 123.697,928.771 123.819,928.771C127.848,929.054 129.38,938.482 127.755,940.474C125.982,942.688 125.465,944.977 125.465,947.043C125.465,952.315 128.878,956.864 135.003,957.24ZM136.46,948.069C133.665,947.365 132.557,944.737 132.557,941.803L132.557,926.575C132.557,926.575 132.653,925.389 133.88,925.16C133.921,925.153 134.823,925.153 134.865,925.153C136.32,925.142 136.457,926.44 136.457,926.528C136.457,933.938 136.46,940.973 136.46,948.069Z" style="fill:white;"/>
                    </g>
                </g>
                <g id="Nom" transform="matrix(0.616559,0,0,0.616559,878.287,782.718)">
                    <g transform="matrix(2.26796,0,0,1.09678,-3156.52,1895.66)">
                        <path d="M2474.4,516.024L2453.69,516.024C2447.11,516.024 2441.64,518.962 2441.64,526.655C2441.64,534.349 2447.11,537.286 2453.69,537.286L2458.59,537.286L2458.59,539.389C2458.59,545.698 2453.83,550.324 2444.87,550.324C2433.24,550.324 2423.99,542.473 2423.99,526.096C2423.99,511.258 2432.26,502.566 2443.74,502.566C2447.67,502.566 2452.01,503.548 2456.21,506.912C2459.99,509.996 2462.93,511.398 2466.43,511.398C2472.58,511.398 2478.46,506.632 2478.46,498.23C2478.46,494.872 2477.48,491.794 2473.84,488.297C2467.41,482.141 2456.63,478.784 2444.73,478.784C2417.28,478.784 2396.01,496.411 2396.01,526.515C2396.01,556.899 2417.7,573.406 2442.76,573.406C2463.77,573.406 2485.32,561.935 2485.32,537.847L2485.32,526.655C2485.32,518.962 2481.4,516.024 2474.4,516.024Z" style="fill:white;fill-rule:nonzero;"/>
                    </g>
                    <g transform="matrix(2.26796,0,0,1.09678,-3156.52,1895.66)">
                        <path d="M2523.12,573.406C2534.33,573.406 2542.31,567.531 2544.41,562.495L2545.67,562.495L2545.67,562.635C2545.67,568.366 2550.57,572.286 2557.14,572.286C2565.68,572.286 2570.72,566.406 2570.72,558.286L2570.72,532.246C2570.72,512.655 2553.93,500.624 2532.64,500.624C2510.8,500.624 2491.49,513.354 2491.49,537.986C2491.49,559.266 2505.9,573.406 2523.12,573.406L2523.12,573.406ZM2518.91,537.426C2518.91,529.17 2523.4,523.006 2531.8,523.006C2538.39,523.006 2543.85,526.649 2543.85,534.914L2543.85,539.537C2543.85,547.802 2537.27,551.304 2531.38,551.304C2523.82,551.304 2518.91,546.121 2518.91,537.435L2518.91,537.426Z" style="fill:white;fill-rule:nonzero;"/>
                    </g>
                    <g transform="matrix(2.26796,0,0,1.09678,-3156.52,1895.66)">
                        <path d="M2578.01,532.392L2578.01,581.526C2578.01,589.646 2583.75,595.526 2591.58,595.526C2599.42,595.526 2605.16,589.646 2605.16,581.526L2605.16,565.153L2606,565.153C2608.38,568.231 2614.82,573.406 2625.61,573.406C2642.68,573.406 2657.24,559.138 2657.24,538.136C2657.24,514.893 2639.47,500.624 2616.22,500.624C2594.8,500.624 2578.01,512.655 2578.01,532.392ZM2604.88,539.537L2604.88,534.914C2604.88,527.209 2610.34,523.566 2616.92,523.566C2625.33,523.566 2629.81,529.73 2629.81,537.435C2629.81,546.121 2624.91,551.304 2617.34,551.304C2611.46,551.304 2604.88,547.802 2604.88,539.537Z" style="fill:white;fill-rule:nonzero;"/>
                    </g>
                    <g transform="matrix(2.26796,0,0,1.09678,-3156.52,1895.66)">
                        <path d="M2677.12,496.126C2685.66,496.126 2692.24,489.55 2692.24,481.015C2692.24,472.48 2685.66,465.904 2677.12,465.904C2668.59,465.904 2662.01,472.48 2662.01,481.015C2662.01,489.55 2668.59,496.126 2677.12,496.126ZM2663.55,558.29C2663.55,566.408 2669.29,572.286 2677.12,572.286C2684.96,572.286 2690.7,566.408 2690.7,558.29L2690.7,515.74C2690.7,507.622 2684.96,501.744 2677.12,501.744C2669.29,501.744 2663.55,507.622 2663.55,515.74L2663.55,558.29Z" style="fill:white;fill-rule:nonzero;"/>
                    </g>
                    <g transform="matrix(2.26796,0,0,1.09678,-3156.52,1895.66)">
                        <path d="M2711.98,472.886C2704.15,472.886 2698.41,478.766 2698.41,486.886L2698.41,558.286C2698.41,566.406 2704.15,572.286 2711.98,572.286C2719.82,572.286 2725.55,566.406 2725.55,558.286L2725.55,486.886C2725.55,478.766 2719.82,472.886 2711.98,472.886Z" style="fill:white;fill-rule:nonzero;"/>
                    </g>
                    <g transform="matrix(2.26796,0,0,1.09678,-3156.52,1895.66)">
                        <path d="M2763.08,573.406C2774.29,573.406 2782.27,567.531 2784.37,562.495L2785.63,562.495L2785.63,562.635C2785.63,568.366 2790.53,572.286 2797.11,572.286C2805.64,572.286 2810.68,566.406 2810.68,558.286L2810.68,532.246C2810.68,512.655 2793.89,500.624 2772.61,500.624C2750.76,500.624 2731.45,513.354 2731.45,537.986C2731.45,559.266 2745.86,573.406 2763.08,573.406L2763.08,573.406ZM2758.88,537.426C2758.88,529.17 2763.36,523.006 2771.76,523.006C2778.35,523.006 2783.81,526.649 2783.81,534.914L2783.81,539.537C2783.81,547.802 2777.23,551.304 2771.34,551.304C2763.78,551.304 2758.88,546.121 2758.88,537.435L2758.88,537.426Z" style="fill:white;fill-rule:nonzero;"/>
                    </g>
                </g>
            </g>
        </g>
    </g>
</svg>
