<?xml version="1.0" encoding="UTF-8" standalone="no"?>
<!DOCTYPE svg PUBLIC "-//W3C//DTD SVG 1.1//EN" "http://www.w3.org/Graphics/SVG/1.1/DTD/svg11.dtd">
<svg width="100%" height="100%" viewBox="0 0 100 100" version="1.1" xmlns="http://www.w3.org/2000/svg" xmlns:xlink="http://www.w3.org/1999/xlink" xml:space="preserve" xmlns:serif="http://www.serif.com/" style="fill-rule:evenodd;clip-rule:evenodd;stroke-linejoin:round;stroke-miterlimit:2;">
    <g transform="matrix(1,0,0,1,-197.864,-1207.86)">
        <g transform="matrix(0.333333,0,0,0.333333,-382.401,494.666)">
            <g transform="matrix(3,0,0,3,1147.2,-1484)">
                <path d="M297.864,1232.86C297.864,1219.07 286.662,1207.86 272.864,1207.86L222.864,1207.86C209.067,1207.86 197.864,1219.07 197.864,1232.86L197.864,1282.86C197.864,1296.66 209.067,1307.86 222.864,1307.86L272.864,1307.86C286.662,1307.86 297.864,1296.66 297.864,1282.86L297.864,1232.86ZM249.269,1255.93C249.269,1255.93 249.27,1242.02 249.269,1234.5C249.269,1233.58 250.046,1232.95 250.935,1233.02C254.98,1233.34 258.629,1234.53 261.882,1236.61C267.427,1240.14 271.23,1245.7 272.453,1252.16C273.885,1259.72 271.527,1267.47 266.182,1272.98C262.233,1277.05 257.01,1279.52 251.331,1280.05C250.791,1280.1 250.416,1280.08 250.204,1279.99C249.627,1279.74 249.262,1279.2 249.262,1278.58C249.264,1274.69 249.267,1266.62 249.268,1266.59C249.276,1265.72 250.001,1265.22 250.541,1265.14C257.353,1264.23 260.633,1259.77 260.633,1254.32C260.633,1249.59 258.195,1247.08 254.87,1247.08L253.762,1247.08L253.762,1249.67C253.762,1252.8 252.5,1255.45 249.269,1255.93ZM245.003,1265.1C245.849,1265.15 246.367,1265.77 246.46,1266.46C246.461,1266.47 246.459,1274.54 246.458,1278.56C246.458,1279.01 246.301,1279.38 245.987,1279.68C245.458,1280.17 244.892,1280.1 244.232,1280.03C240.528,1279.66 237.134,1278.52 234.05,1276.6C228.749,1273.31 224.973,1268.1 223.508,1262.03C222.709,1258.72 222.637,1255.04 223.387,1251.6C225.521,1241.82 233.697,1236.63 233.819,1236.63C237.848,1236.92 239.38,1246.35 237.755,1248.34C235.982,1250.55 235.465,1252.84 235.465,1254.91C235.465,1260.18 238.878,1264.73 245.003,1265.1ZM246.46,1255.93C243.665,1255.23 242.557,1252.6 242.557,1249.67L242.557,1234.44C242.557,1234.44 242.653,1233.25 243.88,1233.02C243.921,1233.02 244.823,1233.02 244.865,1233.02C246.32,1233.01 246.457,1234.3 246.457,1234.39C246.457,1241.8 246.46,1248.84 246.46,1255.93Z" style="fill:rgb(43,43,43);"/>
            </g>
        </g>
    </g>
</svg>
