<?xml version="1.0" encoding="UTF-8" standalone="no"?>
<!DOCTYPE svg PUBLIC "-//W3C//DTD SVG 1.1//EN" "http://www.w3.org/Graphics/SVG/1.1/DTD/svg11.dtd">
<svg width="100%" height="100%" viewBox="0 0 100 100" version="1.1" xmlns="http://www.w3.org/2000/svg" xmlns:xlink="http://www.w3.org/1999/xlink" xml:space="preserve" xmlns:serif="http://www.serif.com/" style="fill-rule:evenodd;clip-rule:evenodd;stroke-linejoin:round;stroke-miterlimit:2;">
    <g transform="matrix(1,0,0,1,-87.8644,-1207.86)">
        <g transform="matrix(0.333333,0,0,0.333333,-382.401,494.666)">
            <g transform="matrix(3,0,0,3,1147.2,-1010.41)">
                <path d="M187.864,1075C187.864,1061.2 176.662,1050 162.864,1050L112.864,1050C99.067,1050 87.864,1061.2 87.864,1075L87.864,1125C87.864,1138.8 99.067,1150 112.864,1150L162.864,1150C176.662,1150 187.864,1138.8 187.864,1125L187.864,1075ZM139.269,1098.07C139.269,1098.07 139.27,1084.15 139.269,1076.64C139.269,1075.71 140.046,1075.09 140.935,1075.16C144.98,1075.47 148.629,1076.67 151.882,1078.74C157.427,1082.28 161.23,1087.84 162.453,1094.3C163.885,1101.85 161.527,1109.6 156.182,1115.12C152.233,1119.19 147.01,1121.65 141.331,1122.19C140.791,1122.24 140.416,1122.22 140.204,1122.13C139.627,1121.88 139.262,1121.34 139.262,1120.72C139.264,1116.82 139.267,1108.75 139.268,1108.73C139.276,1107.86 140.001,1107.35 140.541,1107.28C147.353,1106.37 150.633,1101.91 150.633,1096.45C150.633,1091.73 148.195,1089.22 144.87,1089.22L143.762,1089.22L143.762,1091.8C143.762,1094.93 142.5,1097.59 139.269,1098.07ZM135.003,1107.24C135.849,1107.29 136.367,1107.9 136.46,1108.6C136.461,1108.61 136.459,1116.68 136.458,1120.7C136.458,1121.15 136.301,1121.52 135.987,1121.81C135.458,1122.31 134.892,1122.23 134.232,1122.17C130.528,1121.8 127.134,1120.65 124.05,1118.74C118.749,1115.44 114.973,1110.23 113.508,1104.17C112.709,1100.86 112.637,1097.18 113.387,1093.74C115.521,1083.95 123.697,1078.77 123.819,1078.77C127.848,1079.05 129.38,1088.48 127.755,1090.47C125.982,1092.69 125.465,1094.98 125.465,1097.04C125.465,1102.32 128.878,1106.86 135.003,1107.24ZM136.46,1098.07C133.665,1097.37 132.557,1094.74 132.557,1091.8L132.557,1076.58C132.557,1076.58 132.653,1075.39 133.88,1075.16C133.921,1075.15 134.823,1075.15 134.865,1075.15C136.32,1075.14 136.457,1076.44 136.457,1076.53C136.457,1083.94 136.46,1090.97 136.46,1098.07Z" style="fill:url(#_Linear1);"/>
            </g>
        </g>
    </g>
    <defs>
        <linearGradient id="_Linear1" x1="0" y1="0" x2="1" y2="0" gradientUnits="userSpaceOnUse" gradientTransform="matrix(100,0,0,100,87.8644,1100)"><stop offset="0" style="stop-color:rgb(6,119,144);stop-opacity:1"/><stop offset="1" style="stop-color:rgb(0,84,103);stop-opacity:1"/></linearGradient>
    </defs>
</svg>
