<?xml version="1.0" encoding="UTF-8" standalone="no"?>
<!DOCTYPE svg PUBLIC "-//W3C//DTD SVG 1.1//EN" "http://www.w3.org/Graphics/SVG/1.1/DTD/svg11.dtd">
<svg width="100%" height="100%" viewBox="0 0 100 100" version="1.1" xmlns="http://www.w3.org/2000/svg" xmlns:xlink="http://www.w3.org/1999/xlink" xml:space="preserve" xmlns:serif="http://www.serif.com/" style="fill-rule:evenodd;clip-rule:evenodd;stroke-linejoin:round;stroke-miterlimit:2;">
    <g transform="matrix(1,0,0,1,-317.864,-1207.86)">
        <g transform="matrix(0.333333,0,0,0.333333,-382.401,494.666)">
            <g transform="matrix(3,0,0,3,1147.2,-1484)">
                <path d="M417.864,1232.86C417.864,1219.07 406.662,1207.86 392.864,1207.86L342.864,1207.86C329.067,1207.86 317.864,1219.07 317.864,1232.86L317.864,1282.86C317.864,1296.66 329.067,1307.86 342.864,1307.86L392.864,1307.86C406.662,1307.86 417.864,1296.66 417.864,1282.86L417.864,1232.86ZM369.269,1255.93C369.269,1255.93 369.27,1242.02 369.269,1234.5C369.269,1233.58 370.046,1232.95 370.935,1233.02C374.98,1233.34 378.629,1234.53 381.882,1236.61C387.427,1240.14 391.23,1245.7 392.453,1252.16C393.885,1259.72 391.527,1267.47 386.182,1272.98C382.233,1277.05 377.01,1279.52 371.331,1280.05C370.791,1280.1 370.416,1280.08 370.204,1279.99C369.627,1279.74 369.262,1279.2 369.262,1278.58C369.264,1274.69 369.267,1266.62 369.268,1266.59C369.276,1265.72 370.001,1265.22 370.541,1265.14C377.353,1264.23 380.633,1259.77 380.633,1254.32C380.633,1249.59 378.195,1247.08 374.87,1247.08L373.762,1247.08L373.762,1249.67C373.762,1252.8 372.5,1255.45 369.269,1255.93ZM365.003,1265.1C365.849,1265.15 366.367,1265.77 366.46,1266.46C366.461,1266.47 366.459,1274.54 366.458,1278.56C366.458,1279.01 366.301,1279.38 365.987,1279.68C365.458,1280.17 364.892,1280.1 364.232,1280.03C360.528,1279.66 357.134,1278.52 354.05,1276.6C348.749,1273.31 344.973,1268.1 343.508,1262.03C342.709,1258.72 342.637,1255.04 343.387,1251.6C345.521,1241.82 353.697,1236.63 353.819,1236.63C357.848,1236.92 359.38,1246.35 357.755,1248.34C355.982,1250.55 355.465,1252.84 355.465,1254.91C355.465,1260.18 358.878,1264.73 365.003,1265.1ZM366.46,1255.93C363.665,1255.23 362.557,1252.6 362.557,1249.67L362.557,1234.44C362.557,1234.44 362.653,1233.25 363.88,1233.02C363.921,1233.02 364.823,1233.02 364.865,1233.02C366.32,1233.01 366.457,1234.3 366.457,1234.39C366.457,1241.8 366.46,1248.84 366.46,1255.93Z" style="fill:white;"/>
            </g>
        </g>
    </g>
</svg>
