<?xml version="1.0" encoding="UTF-8" standalone="no"?>
<!DOCTYPE svg PUBLIC "-//W3C//DTD SVG 1.1//EN" "http://www.w3.org/Graphics/SVG/1.1/DTD/svg11.dtd">
<svg width="100%" height="100%" viewBox="0 0 50 48" version="1.1" xmlns="http://www.w3.org/2000/svg" xmlns:xlink="http://www.w3.org/1999/xlink" xml:space="preserve" xmlns:serif="http://www.serif.com/" style="fill-rule:evenodd;clip-rule:evenodd;stroke-linejoin:round;stroke-miterlimit:2;">
    <g transform="matrix(1,0,0,1,-115,-1343.02)">
        <g transform="matrix(0.333333,0,0,0.333333,-380.266,604.666)">
            <g transform="matrix(3,0,0,3,1140.8,-1814)">
                <path d="M141.405,1365.93C141.405,1365.93 141.406,1352.02 141.405,1344.5C141.405,1343.58 142.182,1342.95 143.071,1343.02C147.116,1343.34 150.764,1344.53 154.017,1346.61C159.563,1350.14 163.365,1355.7 164.589,1362.16C166.02,1369.72 163.663,1377.47 158.318,1382.98C154.369,1387.05 149.146,1389.52 143.466,1390.05C142.927,1390.1 142.551,1390.08 142.34,1389.99C141.763,1389.74 141.397,1389.2 141.397,1388.58C141.399,1384.69 141.403,1376.62 141.403,1376.59C141.411,1375.72 142.136,1375.22 142.677,1375.14C149.489,1374.23 152.768,1369.77 152.768,1364.32C152.768,1359.59 150.33,1357.08 147.006,1357.08L145.898,1357.08L145.898,1359.67C145.898,1362.8 144.635,1365.45 141.405,1365.93ZM137.138,1375.1C137.985,1375.15 138.502,1375.77 138.595,1376.46C138.597,1376.47 138.595,1384.54 138.594,1388.56C138.594,1389.01 138.437,1389.38 138.122,1389.68C137.594,1390.17 137.027,1390.1 136.368,1390.03C132.664,1389.66 129.269,1388.52 126.185,1386.6C120.885,1383.31 117.109,1378.1 115.643,1372.03C114.845,1368.72 114.772,1365.04 115.523,1361.6C117.657,1351.82 125.833,1346.63 125.954,1346.63C129.984,1346.92 131.516,1356.35 129.891,1358.34C128.118,1360.55 127.601,1362.84 127.601,1364.91C127.601,1370.18 131.014,1374.73 137.138,1375.1ZM138.596,1365.93C135.8,1365.23 134.693,1362.6 134.693,1359.67L134.693,1344.44C134.693,1344.44 134.789,1343.25 136.016,1343.02C136.057,1343.02 136.958,1343.02 137,1343.02C138.456,1343.01 138.592,1344.3 138.592,1344.39C138.592,1351.8 138.595,1358.84 138.596,1365.93Z" style="fill:url(#_Linear1);fill-rule:nonzero;"/>
            </g>
        </g>
    </g>
    <defs>
        <linearGradient id="_Linear1" x1="0" y1="0" x2="1" y2="0" gradientUnits="userSpaceOnUse" gradientTransform="matrix(188.247,0,0,200,1796.67,2288.78)"><stop offset="0" style="stop-color:rgb(6,119,144);stop-opacity:1"/><stop offset="1" style="stop-color:rgb(0,84,103);stop-opacity:1"/></linearGradient>
    </defs>
</svg>
