<?xml version="1.0" encoding="UTF-8" standalone="no"?>
<!DOCTYPE svg PUBLIC "-//W3C//DTD SVG 1.1//EN" "http://www.w3.org/Graphics/SVG/1.1/DTD/svg11.dtd">
<svg width="100%" height="100%" viewBox="0 0 50 48" version="1.1" xmlns="http://www.w3.org/2000/svg" xmlns:xlink="http://www.w3.org/1999/xlink" xml:space="preserve" xmlns:serif="http://www.serif.com/" style="fill-rule:evenodd;clip-rule:evenodd;stroke-linejoin:round;stroke-miterlimit:2;">
    <g transform="matrix(1,0,0,1,-225,-1343.02)">
        <g transform="matrix(0.333333,0,0,0.333333,-380.266,604.666)">
            <g transform="matrix(6.16298e-33,-0.75,0.75,0,174.211,3703.74)">
                <g transform="matrix(0.373549,0,0,0.373549,1008.49,1399.63)">
                    <path d="M2368.54,2365.23C2376.08,2335.3 2404.22,2323.44 2435.64,2323.44L2598.7,2323.44C2598.7,2323.44 2611.4,2324.47 2613.85,2337.61C2613.93,2338.05 2613.92,2347.7 2613.93,2348.15C2614.04,2363.74 2600.14,2365.2 2599.2,2365.2C2519.85,2365.2 2444.52,2365.23 2368.54,2365.23Z" style="fill:rgb(43,43,43);fill-rule:nonzero;"/>
                </g>
                <g transform="matrix(0.373549,0,0,0.373549,1008.49,1399.63)">
                    <path d="M2270.34,2349.63C2269.78,2358.7 2263.26,2364.23 2255.82,2365.23C2255.69,2365.25 2169.25,2365.22 2126.2,2365.21C2121.41,2365.21 2117.44,2363.53 2114.28,2360.16C2108.98,2354.51 2109.8,2348.44 2110.5,2341.38C2114.45,2301.71 2126.68,2265.37 2147.21,2232.34C2182.49,2175.58 2238.28,2135.15 2303.25,2119.46C2338.66,2110.91 2378.1,2110.13 2414.9,2118.16C2519.71,2141.02 2575.18,2228.57 2575.18,2229.87C2572.15,2273.02 2471.2,2289.42 2449.87,2272.02C2426.16,2253.03 2401.65,2247.5 2379.52,2247.5C2323.07,2247.5 2274.36,2284.05 2270.34,2349.63Z" style="fill:rgb(43,43,43);fill-rule:nonzero;"/>
                </g>
                <g transform="matrix(0.373549,0,0,0.373549,1008.49,1399.63)">
                    <path d="M2368.51,2395.31C2368.51,2395.31 2517.53,2395.32 2598.04,2395.31C2607.91,2395.31 2614.62,2403.64 2613.87,2413.15C2610.49,2456.47 2597.7,2495.54 2575.48,2530.37C2537.61,2589.75 2478.06,2630.47 2408.92,2643.57C2328.03,2658.9 2245.03,2633.66 2186.01,2576.42C2142.39,2534.13 2115.98,2478.21 2110.28,2417.39C2109.73,2411.61 2109.95,2407.59 2110.93,2405.33C2113.59,2399.14 2119.36,2395.24 2126.04,2395.24C2167.71,2395.26 2254.12,2395.3 2254.38,2395.3C2263.74,2395.39 2269.12,2403.15 2269.9,2408.93C2279.67,2481.88 2327.43,2517 2385.84,2517C2436.43,2517 2463.31,2490.89 2463.31,2455.29L2463.31,2443.43L2435.64,2443.43C2402.09,2443.43 2373.7,2429.91 2368.51,2395.31Z" style="fill:rgb(43,43,43);fill-rule:nonzero;"/>
                </g>
            </g>
        </g>
    </g>
</svg>
